<?xml version="1.0" encoding="UTF-8"?>
<svg id="Warstwa_1" data-name="Warstwa 1" xmlns="http://www.w3.org/2000/svg" viewBox="0 0 16 16">
  <defs>
    <style>
      .cls-1 {
        fill: #252c33;
      }

      .cls-2 {
        fill: #fff;
      }
    </style>
  </defs>
  <rect class="cls-2" y="0" width="16" height="16"/>
  <g>
    <path class="cls-1" d="M2.46,8.37c0,3.06,2.48,5.54,5.54,5.54s5.54-2.48,5.54-5.54H2.46Z"/>
    <path class="cls-1" d="M8,3.05c2.53,0,4.58,2.06,4.58,4.58h.96c0-3.06-2.49-5.54-5.54-5.54S2.46,4.58,2.46,7.63h.96c0-2.53,2.06-4.58,4.58-4.58Z"/>
    <path class="cls-1" d="M10.77,7.63h.96c0-2.06-1.67-3.73-3.73-3.73s-3.73,1.67-3.73,3.73h.96c0-1.53,1.24-2.77,2.77-2.77s2.77,1.24,2.77,2.77Z"/>
    <path class="cls-1" d="M6.15,7.63h.96c0-.49.4-.89.89-.89s.89.4.89.89h.96c0-1.02-.83-1.85-1.85-1.85s-1.85.83-1.85,1.85Z"/>
  </g>
</svg>