<?xml version="1.0" encoding="UTF-8"?>
<svg id="Warstwa_1" data-name="Warstwa 1" xmlns="http://www.w3.org/2000/svg" viewBox="0 0 160 160">
  <defs>
    <style>
      .cls-1 {
        fill: #252c33;
      }
    </style>
  </defs>
  <path class="cls-1" d="M32.91,83.11c0,26,21.08,47.09,47.09,47.09s47.09-21.08,47.09-47.09H32.91Z"/>
  <path class="cls-1" d="M80,37.95c21.46,0,38.91,17.46,38.91,38.91h8.15c0-25.95-21.11-47.06-47.06-47.06s-47.06,21.11-47.06,47.06h8.15c0-21.46,17.46-38.91,38.91-38.91Z"/>
  <path class="cls-1" d="M103.55,76.86h8.15c0-17.48-14.22-31.7-31.7-31.7s-31.7,14.22-31.7,31.7h8.15c0-12.99,10.56-23.55,23.55-23.55s23.55,10.56,23.55,23.55Z"/>
  <path class="cls-1" d="M64.27,76.86h8.15c0-4.18,3.4-7.58,7.58-7.58s7.58,3.4,7.58,7.58h8.15c0-8.67-7.06-15.73-15.73-15.73s-15.73,7.06-15.73,15.73Z"/>
</svg>